<mxfile host="app.diagrams.net" modified="2023-05-13T06:26:20.881Z" agent="Mozilla/5.0 (Windows NT 10.0; Win64; x64) AppleWebKit/537.36 (KHTML, like Gecko) Chrome/113.0.0.0 Safari/537.36" etag="Aw0NIt8Qtct1OSe7wGf8" version="21.2.9" type="github">
  <diagram name="第 1 页" id="RrWnzEonAnPFgkYIMk8x">
    <mxGraphModel dx="1194" dy="620" grid="1" gridSize="10" guides="1" tooltips="1" connect="1" arrows="1" fold="1" page="1" pageScale="1" pageWidth="827" pageHeight="1169" math="0" shadow="0">
      <root>
        <mxCell id="0" />
        <mxCell id="1" parent="0" />
        <mxCell id="N5YRzzfWWF3YoBW68ofq-1" value="" style="rounded=1;whiteSpace=wrap;html=1;fillColor=none;strokeColor=#4294FF;" vertex="1" parent="1">
          <mxGeometry x="342" y="176" width="256" height="128" as="geometry" />
        </mxCell>
        <mxCell id="N5YRzzfWWF3YoBW68ofq-2" value="Other Quantum&lt;br&gt;Languages" style="shape=note;size=10;whiteSpace=wrap;html=1;shadow=1;" vertex="1" parent="1">
          <mxGeometry x="508" y="80" width="104" height="32" as="geometry" />
        </mxCell>
        <mxCell id="N5YRzzfWWF3YoBW68ofq-3" value="OpenQASM" style="shape=note;size=10;whiteSpace=wrap;html=1;shadow=1;" vertex="1" parent="1">
          <mxGeometry x="262" y="80" width="104" height="32" as="geometry" />
        </mxCell>
        <mxCell id="N5YRzzfWWF3YoBW68ofq-4" value="Scaffold" style="shape=note;size=10;whiteSpace=wrap;html=1;shadow=1;" vertex="1" parent="1">
          <mxGeometry x="150" y="80" width="104" height="32" as="geometry" />
        </mxCell>
        <mxCell id="N5YRzzfWWF3YoBW68ofq-5" value="QPanda" style="shape=note;size=10;whiteSpace=wrap;html=1;shadow=1;" vertex="1" parent="1">
          <mxGeometry x="374" y="80" width="104" height="32" as="geometry" />
        </mxCell>
        <mxCell id="N5YRzzfWWF3YoBW68ofq-6" value="Front End Compiler" style="rounded=1;whiteSpace=wrap;html=1;strokeColor=#0077FF;" vertex="1" parent="1">
          <mxGeometry x="463" y="128" width="128" height="24" as="geometry" />
        </mxCell>
        <mxCell id="N5YRzzfWWF3YoBW68ofq-7" value="" style="endArrow=classic;html=1;rounded=0;exitX=0.5;exitY=1;exitDx=0;exitDy=0;exitPerimeter=0;entryX=0.5;entryY=0;entryDx=0;entryDy=0;endSize=2;" edge="1" parent="1" source="N5YRzzfWWF3YoBW68ofq-4" target="N5YRzzfWWF3YoBW68ofq-6">
          <mxGeometry width="50" height="50" relative="1" as="geometry">
            <mxPoint x="310" y="34" as="sourcePoint" />
            <mxPoint x="360" y="-16" as="targetPoint" />
          </mxGeometry>
        </mxCell>
        <mxCell id="N5YRzzfWWF3YoBW68ofq-8" value="" style="endArrow=classic;html=1;rounded=0;exitX=0.5;exitY=1;exitDx=0;exitDy=0;exitPerimeter=0;entryX=0.5;entryY=0;entryDx=0;entryDy=0;endSize=2;" edge="1" parent="1" source="N5YRzzfWWF3YoBW68ofq-3" target="N5YRzzfWWF3YoBW68ofq-6">
          <mxGeometry width="50" height="50" relative="1" as="geometry">
            <mxPoint x="210" y="120" as="sourcePoint" />
            <mxPoint x="370" y="144" as="targetPoint" />
          </mxGeometry>
        </mxCell>
        <mxCell id="N5YRzzfWWF3YoBW68ofq-9" value="" style="endArrow=classic;html=1;rounded=0;exitX=0.5;exitY=1;exitDx=0;exitDy=0;exitPerimeter=0;endSize=2;entryX=0.5;entryY=0;entryDx=0;entryDy=0;" edge="1" parent="1" source="N5YRzzfWWF3YoBW68ofq-5" target="N5YRzzfWWF3YoBW68ofq-6">
          <mxGeometry width="50" height="50" relative="1" as="geometry">
            <mxPoint x="310" y="34" as="sourcePoint" />
            <mxPoint x="494" y="176" as="targetPoint" />
          </mxGeometry>
        </mxCell>
        <mxCell id="N5YRzzfWWF3YoBW68ofq-10" value="" style="endArrow=classic;html=1;rounded=0;exitX=0.5;exitY=1;exitDx=0;exitDy=0;exitPerimeter=0;endSize=2;entryX=0.5;entryY=0;entryDx=0;entryDy=0;" edge="1" parent="1" source="N5YRzzfWWF3YoBW68ofq-2" target="N5YRzzfWWF3YoBW68ofq-6">
          <mxGeometry width="50" height="50" relative="1" as="geometry">
            <mxPoint x="310" y="34" as="sourcePoint" />
            <mxPoint x="360" y="136" as="targetPoint" />
          </mxGeometry>
        </mxCell>
        <mxCell id="N5YRzzfWWF3YoBW68ofq-11" value="" style="endArrow=none;dashed=1;html=1;dashPattern=1 3;strokeWidth=2;rounded=0;entryX=0.019;entryY=0.5;entryDx=0;entryDy=0;entryPerimeter=0;" edge="1" parent="1" target="N5YRzzfWWF3YoBW68ofq-2">
          <mxGeometry width="50" height="50" relative="1" as="geometry">
            <mxPoint x="486" y="96" as="sourcePoint" />
            <mxPoint x="502" y="96" as="targetPoint" />
            <Array as="points" />
          </mxGeometry>
        </mxCell>
        <mxCell id="N5YRzzfWWF3YoBW68ofq-12" value="Pattern &lt;br&gt;Matcher" style="rounded=1;whiteSpace=wrap;html=1;strokeColor=#0077FF;" vertex="1" parent="1">
          <mxGeometry x="486" y="180" width="80" height="40" as="geometry" />
        </mxCell>
        <mxCell id="N5YRzzfWWF3YoBW68ofq-13" value="Pattern &lt;br&gt;Rewriter" style="rounded=1;whiteSpace=wrap;html=1;strokeColor=#0077FF;" vertex="1" parent="1">
          <mxGeometry x="486" y="256" width="80" height="40" as="geometry" />
        </mxCell>
        <mxCell id="N5YRzzfWWF3YoBW68ofq-14" value="Pattern&lt;br&gt;Scheduler" style="whiteSpace=wrap;html=1;aspect=fixed;fillColor=#B7D5FF;rounded=1;arcSize=14;strokeColor=#0077FF;" vertex="1" parent="1">
          <mxGeometry x="354" y="194.5" width="91" height="91" as="geometry" />
        </mxCell>
        <mxCell id="N5YRzzfWWF3YoBW68ofq-15" value="Relationship&lt;br&gt;Memory" style="shape=cylinder3;whiteSpace=wrap;html=1;boundedLbl=1;backgroundOutline=1;size=4.666656494140625;fillColor=#B7D5FF;strokeColor=#4294FF;" vertex="1" parent="1">
          <mxGeometry x="250" y="239" width="72" height="48" as="geometry" />
        </mxCell>
        <mxCell id="N5YRzzfWWF3YoBW68ofq-16" value="" style="endArrow=classic;html=1;rounded=0;entryX=0;entryY=0.75;entryDx=0;entryDy=0;exitX=1;exitY=0.5;exitDx=0;exitDy=0;exitPerimeter=0;endSize=6;" edge="1" parent="1" source="N5YRzzfWWF3YoBW68ofq-15" target="N5YRzzfWWF3YoBW68ofq-14">
          <mxGeometry relative="1" as="geometry">
            <mxPoint x="283.5" y="271.5" as="sourcePoint" />
            <mxPoint x="559.5" y="379.5" as="targetPoint" />
          </mxGeometry>
        </mxCell>
        <mxCell id="N5YRzzfWWF3YoBW68ofq-17" value="r" style="edgeLabel;resizable=0;html=1;align=center;verticalAlign=middle;rotation=0;" connectable="0" vertex="1" parent="N5YRzzfWWF3YoBW68ofq-16">
          <mxGeometry relative="1" as="geometry">
            <mxPoint x="-5" y="-9" as="offset" />
          </mxGeometry>
        </mxCell>
        <mxCell id="N5YRzzfWWF3YoBW68ofq-18" value="Pattern&lt;br&gt;Library" style="shape=cylinder3;whiteSpace=wrap;html=1;boundedLbl=1;backgroundOutline=1;size=3.833343505859375;strokeColor=#4294FF;" vertex="1" parent="1">
          <mxGeometry x="256" y="197.75" width="60" height="40" as="geometry" />
        </mxCell>
        <mxCell id="N5YRzzfWWF3YoBW68ofq-19" value="" style="endArrow=classic;html=1;rounded=0;exitX=1;exitY=0.5;exitDx=0;exitDy=0;exitPerimeter=0;entryX=0;entryY=0.262;entryDx=0;entryDy=0;entryPerimeter=0;endSize=6;" edge="1" parent="1" source="N5YRzzfWWF3YoBW68ofq-18" target="N5YRzzfWWF3YoBW68ofq-14">
          <mxGeometry relative="1" as="geometry">
            <mxPoint x="275.5" y="259.5" as="sourcePoint" />
            <mxPoint x="403.5" y="224.5" as="targetPoint" />
          </mxGeometry>
        </mxCell>
        <mxCell id="N5YRzzfWWF3YoBW68ofq-20" value="p" style="edgeLabel;resizable=0;html=1;align=center;verticalAlign=middle;rotation=0;" connectable="0" vertex="1" parent="N5YRzzfWWF3YoBW68ofq-19">
          <mxGeometry relative="1" as="geometry">
            <mxPoint x="-6" y="-10" as="offset" />
          </mxGeometry>
        </mxCell>
        <mxCell id="N5YRzzfWWF3YoBW68ofq-21" value="match info" style="edgeLabel;resizable=0;html=1;align=center;verticalAlign=middle;" connectable="0" vertex="1" parent="1">
          <mxGeometry x="557.9966666666667" y="239.9999999999999" as="geometry">
            <mxPoint x="4" y="1" as="offset" />
          </mxGeometry>
        </mxCell>
        <mxCell id="N5YRzzfWWF3YoBW68ofq-22" value="" style="shape=flexArrow;endArrow=classic;startArrow=classic;html=1;rounded=0;width=5;endSize=2.7583333333333333;startWidth=8.333333333333334;startSize=2.7583333333333333;endWidth=8.333333333333334;entryX=1;entryY=0.5;entryDx=0;entryDy=0;exitX=0;exitY=0.5;exitDx=0;exitDy=0;strokeColor=#4D4D4D;" edge="1" parent="1" source="N5YRzzfWWF3YoBW68ofq-13" target="N5YRzzfWWF3YoBW68ofq-14">
          <mxGeometry width="100" height="100" relative="1" as="geometry">
            <mxPoint x="470" y="211" as="sourcePoint" />
            <mxPoint x="434" y="249" as="targetPoint" />
          </mxGeometry>
        </mxCell>
        <mxCell id="N5YRzzfWWF3YoBW68ofq-23" value="" style="shape=flexArrow;endArrow=classic;startArrow=classic;html=1;rounded=0;width=5;endSize=2.7583333333333333;startWidth=8.333333333333334;startSize=2.7583333333333333;endWidth=8.333333333333334;entryX=1;entryY=0.5;entryDx=0;entryDy=0;exitX=0;exitY=0.5;exitDx=0;exitDy=0;fontColor=#B7D5FF;strokeColor=#4D4D4D;" edge="1" parent="1" source="N5YRzzfWWF3YoBW68ofq-12" target="N5YRzzfWWF3YoBW68ofq-14">
          <mxGeometry width="100" height="100" relative="1" as="geometry">
            <mxPoint x="450" y="391" as="sourcePoint" />
            <mxPoint x="414" y="352" as="targetPoint" />
          </mxGeometry>
        </mxCell>
        <mxCell id="N5YRzzfWWF3YoBW68ofq-24" value="" style="shape=flexArrow;endArrow=classic;startArrow=classic;html=1;rounded=0;width=5;endSize=2.7583333333333333;startWidth=8.333333333333334;startSize=2.7583333333333333;endWidth=8.333333333333334;entryX=0.5;entryY=0;entryDx=0;entryDy=0;exitX=0.5;exitY=1;exitDx=0;exitDy=0;strokeColor=#4D4D4D;" edge="1" parent="1" source="N5YRzzfWWF3YoBW68ofq-12" target="N5YRzzfWWF3YoBW68ofq-13">
          <mxGeometry width="100" height="100" relative="1" as="geometry">
            <mxPoint x="470" y="211" as="sourcePoint" />
            <mxPoint x="434" y="249" as="targetPoint" />
          </mxGeometry>
        </mxCell>
        <mxCell id="N5YRzzfWWF3YoBW68ofq-25" value="Pattern&lt;br&gt;Generator" style="rounded=1;whiteSpace=wrap;html=1;strokeColor=#4294FF;" vertex="1" parent="1">
          <mxGeometry x="150" y="197.75" width="70" height="40" as="geometry" />
        </mxCell>
        <mxCell id="N5YRzzfWWF3YoBW68ofq-26" value="Relationship&lt;br&gt;Extracter" style="rounded=1;whiteSpace=wrap;html=1;strokeColor=#4294FF;" vertex="1" parent="1">
          <mxGeometry x="150" y="243" width="70" height="40" as="geometry" />
        </mxCell>
        <mxCell id="N5YRzzfWWF3YoBW68ofq-27" value="" style="endArrow=classic;html=1;rounded=0;exitX=1;exitY=0.5;exitDx=0;exitDy=0;entryX=0;entryY=0.5;entryDx=0;entryDy=0;entryPerimeter=0;endSize=6;" edge="1" parent="1" source="N5YRzzfWWF3YoBW68ofq-25" target="N5YRzzfWWF3YoBW68ofq-18">
          <mxGeometry relative="1" as="geometry">
            <mxPoint x="330" y="226" as="sourcePoint" />
            <mxPoint x="362" y="226" as="targetPoint" />
          </mxGeometry>
        </mxCell>
        <mxCell id="N5YRzzfWWF3YoBW68ofq-28" value="p" style="edgeLabel;resizable=0;html=1;align=center;verticalAlign=middle;rotation=0;" connectable="0" vertex="1" parent="N5YRzzfWWF3YoBW68ofq-27">
          <mxGeometry relative="1" as="geometry">
            <mxPoint x="-6" y="-10" as="offset" />
          </mxGeometry>
        </mxCell>
        <mxCell id="N5YRzzfWWF3YoBW68ofq-29" value="" style="endArrow=classic;html=1;rounded=0;entryX=0;entryY=0.5;entryDx=0;entryDy=0;exitX=1;exitY=0.5;exitDx=0;exitDy=0;endSize=6;entryPerimeter=0;" edge="1" parent="1" source="N5YRzzfWWF3YoBW68ofq-26" target="N5YRzzfWWF3YoBW68ofq-15">
          <mxGeometry relative="1" as="geometry">
            <mxPoint x="336" y="270" as="sourcePoint" />
            <mxPoint x="362" y="271" as="targetPoint" />
          </mxGeometry>
        </mxCell>
        <mxCell id="N5YRzzfWWF3YoBW68ofq-30" value="r" style="edgeLabel;resizable=0;html=1;align=center;verticalAlign=middle;rotation=0;" connectable="0" vertex="1" parent="N5YRzzfWWF3YoBW68ofq-29">
          <mxGeometry relative="1" as="geometry">
            <mxPoint x="-5" y="-9" as="offset" />
          </mxGeometry>
        </mxCell>
        <mxCell id="N5YRzzfWWF3YoBW68ofq-31" value="Low-level Quantum Compiler" style="rounded=1;whiteSpace=wrap;html=1;strokeColor=#0077FF;" vertex="1" parent="1">
          <mxGeometry x="456" y="328" width="128" height="32" as="geometry" />
        </mxCell>
        <mxCell id="N5YRzzfWWF3YoBW68ofq-32" value="" style="endArrow=classic;html=1;rounded=0;entryX=0.563;entryY=-0.051;entryDx=0;entryDy=0;entryPerimeter=0;exitX=0.728;exitY=1.003;exitDx=0;exitDy=0;exitPerimeter=0;" edge="1" parent="1" source="N5YRzzfWWF3YoBW68ofq-1" target="N5YRzzfWWF3YoBW68ofq-31">
          <mxGeometry relative="1" as="geometry">
            <mxPoint x="528" y="302" as="sourcePoint" />
            <mxPoint x="386" y="216" as="targetPoint" />
          </mxGeometry>
        </mxCell>
        <mxCell id="N5YRzzfWWF3YoBW68ofq-33" value="optimized&amp;nbsp;DAG" style="edgeLabel;resizable=0;html=1;align=center;verticalAlign=middle;spacingBottom=7;" connectable="0" vertex="1" parent="N5YRzzfWWF3YoBW68ofq-32">
          <mxGeometry relative="1" as="geometry">
            <mxPoint x="-56" y="4" as="offset" />
          </mxGeometry>
        </mxCell>
        <mxCell id="N5YRzzfWWF3YoBW68ofq-34" value="" style="endArrow=classic;html=1;rounded=0;exitX=0.5;exitY=1;exitDx=0;exitDy=0;entryX=0.724;entryY=0.006;entryDx=0;entryDy=0;entryPerimeter=0;" edge="1" parent="1" source="N5YRzzfWWF3YoBW68ofq-6" target="N5YRzzfWWF3YoBW68ofq-1">
          <mxGeometry relative="1" as="geometry">
            <mxPoint x="286" y="136" as="sourcePoint" />
            <mxPoint x="526" y="168" as="targetPoint" />
          </mxGeometry>
        </mxCell>
        <mxCell id="N5YRzzfWWF3YoBW68ofq-35" value="DAG" style="edgeLabel;resizable=0;html=1;align=center;verticalAlign=middle;" connectable="0" vertex="1" parent="N5YRzzfWWF3YoBW68ofq-34">
          <mxGeometry relative="1" as="geometry">
            <mxPoint x="-25" as="offset" />
          </mxGeometry>
        </mxCell>
        <mxCell id="N5YRzzfWWF3YoBW68ofq-36" value="Superconducting" style="shape=note;size=10;whiteSpace=wrap;html=1;shadow=1;" vertex="1" parent="1">
          <mxGeometry x="150" y="376" width="104" height="32" as="geometry" />
        </mxCell>
        <mxCell id="N5YRzzfWWF3YoBW68ofq-37" value="Neural Atom" style="shape=note;size=10;whiteSpace=wrap;html=1;shadow=1;" vertex="1" parent="1">
          <mxGeometry x="508" y="376" width="104" height="32" as="geometry" />
        </mxCell>
        <mxCell id="N5YRzzfWWF3YoBW68ofq-38" value="Ion-trap" style="shape=note;size=10;whiteSpace=wrap;html=1;shadow=1;" vertex="1" parent="1">
          <mxGeometry x="316" y="376" width="104" height="32" as="geometry" />
        </mxCell>
        <mxCell id="N5YRzzfWWF3YoBW68ofq-39" value="" style="endArrow=classic;html=1;rounded=0;exitX=0.5;exitY=0;exitDx=0;exitDy=0;exitPerimeter=0;entryX=0.5;entryY=1;entryDx=0;entryDy=0;endSize=2;" edge="1" parent="1" source="N5YRzzfWWF3YoBW68ofq-36" target="N5YRzzfWWF3YoBW68ofq-31">
          <mxGeometry width="50" height="50" relative="1" as="geometry">
            <mxPoint x="350" y="266" as="sourcePoint" />
            <mxPoint x="400" y="216" as="targetPoint" />
            <Array as="points">
              <mxPoint x="358" y="368" />
            </Array>
          </mxGeometry>
        </mxCell>
        <mxCell id="N5YRzzfWWF3YoBW68ofq-40" value="" style="endArrow=classic;html=1;rounded=0;exitX=0.5;exitY=0;exitDx=0;exitDy=0;exitPerimeter=0;entryX=0.5;entryY=1;entryDx=0;entryDy=0;endSize=2;" edge="1" parent="1" source="N5YRzzfWWF3YoBW68ofq-38" target="N5YRzzfWWF3YoBW68ofq-31">
          <mxGeometry width="50" height="50" relative="1" as="geometry">
            <mxPoint x="350" y="266" as="sourcePoint" />
            <mxPoint x="400" y="216" as="targetPoint" />
          </mxGeometry>
        </mxCell>
        <mxCell id="N5YRzzfWWF3YoBW68ofq-41" value="" style="endArrow=classic;html=1;rounded=0;exitX=0.5;exitY=0;exitDx=0;exitDy=0;exitPerimeter=0;entryX=0.5;entryY=1;entryDx=0;entryDy=0;endSize=2;" edge="1" parent="1" source="N5YRzzfWWF3YoBW68ofq-37" target="N5YRzzfWWF3YoBW68ofq-31">
          <mxGeometry width="50" height="50" relative="1" as="geometry">
            <mxPoint x="350" y="266" as="sourcePoint" />
            <mxPoint x="400" y="216" as="targetPoint" />
          </mxGeometry>
        </mxCell>
        <mxCell id="N5YRzzfWWF3YoBW68ofq-42" value="" style="endArrow=none;dashed=1;html=1;dashPattern=1 3;strokeWidth=2;rounded=0;" edge="1" parent="1">
          <mxGeometry width="50" height="50" relative="1" as="geometry">
            <mxPoint x="454" y="391.65999999999997" as="sourcePoint" />
            <mxPoint x="478" y="392" as="targetPoint" />
            <Array as="points" />
          </mxGeometry>
        </mxCell>
      </root>
    </mxGraphModel>
  </diagram>
</mxfile>
